<svg version="1.1" xmlns="http://www.w3.org/2000/svg" viewBox="-270.33600158691405 -1649.5359451293946 9665.240154139932 2731.775930786133"><desc>Created with Snap</desc><defs></defs><g><rect x="-270.33600158691405" y="-1649.5359451293946" width="9665.240154139932" height="2731.775930786133" fill="#165a3f" style=""></rect><g transform="matrix(23.526,0,0,23.526,6852.737,-1459.9429)"><g transform="translate(0,-952.36218)"><path style="" d="m 45.719885,957.36164 3.18651,38.66594 c -0.0104,0.002 -0.0207,0.005 -0.0312,0.007 -0.004,7.7e-4 -0.008,0.002 -0.0117,0.003 -0.0463,0.009 -0.093,0.0154 -0.13911,0.0247 -0.004,7.6e-4 -0.008,0.002 -0.0116,0.003 -0.0493,0.01 -0.0979,0.0214 -0.14692,0.0325 -0.006,9.5e-4 -0.0104,0.003 -0.0156,0.004 -0.2469,0.0566 -0.49069,0.12668 -0.72935,0.21192 -0.0121,0.005 -0.0243,0.009 -0.0364,0.013 -0.0131,0.005 -0.026,0.009 -0.039,0.0143 l -16.53063,-35.06206 -7.4261,4.25388 22.0885,31.88727 c -0.0888,0.0738 -0.17625,0.14988 -0.26131,0.22881 -0.007,0.007 -0.0138,0.013 -0.0208,0.0195 -0.0278,0.026 -0.0546,0.0528 -0.082,0.0793 -0.0108,0.0104 -0.0218,0.0207 -0.0325,0.0312 -0.027,0.0265 -0.054,0.0535 -0.0806,0.0806 -0.12959,0.13168 -0.25391,0.2685 -0.37052,0.40953 l -31.84697,-22.10018 -4.30459,7.3975 35.07899,16.57354 c -0.003,0.01 -0.006,0.016 -0.009,0.025 -0.0102,0.028 -0.0201,0.055 -0.0299,0.083 -0.004,0.012 -0.008,0.023 -0.0116,0.035 -0.01,0.029 -0.0205,0.057 -0.0299,0.086 -0.008,0.023 -0.0149,0.046 -0.0221,0.069 -0.0107,0.034 -0.0211,0.068 -0.0312,0.1014 -0.005,0.015 -0.009,0.029 -0.013,0.044 -0.009,0.032 -0.0187,0.063 -0.0273,0.095 -0.005,0.019 -0.009,0.037 -0.0143,0.056 -0.007,0.023 -0.0123,0.047 -0.0182,0.07 -0.004,0.015 -0.007,0.029 -0.0104,0.044 -0.0341,0.1397 -0.0639,0.2792 -0.0884,0.4199 l -38.65164,-3.1839 0.0299,8.5572 38.61653,-3.2138 c 0.0675,0.4021 0.1727,0.7969 0.31462,1.1792 l -35.06208,16.5293 4.25389,7.4274 31.88726,-22.0898 c 0.25307,0.3044 0.53719,0.5885 0.85027,0.8463 l -22.10152,31.8496 7.3975,4.3046 16.57354,-35.0803 c 0.37654,0.1391 0.76017,0.2403 1.14668,0.3055 l -3.18652,38.6634 8.55848,-0.03 -3.21511,-38.6374 c 0.0264,-0 0.053,-0.01 0.0793,-0.014 0.0321,-0.01 0.0642,-0.012 0.0962,-0.018 0.0335,-0.01 0.0668,-0.014 0.10011,-0.021 0.29999,-0.063 0.59199,-0.1459 0.87496,-0.2496 l 16.57481,35.0816 7.39621,-4.3046 -22.1015,-31.8496 c 0.30851,-0.2541 0.59265,-0.5371 0.84895,-0.8437 l 31.88727,22.0898 4.25388,-7.4274 -35.05427,-16.5268 c 0.14193,-0.3794 0.24892,-0.7761 0.31722,-1.1856 l 38.63343,3.2151 0.0299,-8.55722 -38.66854,3.18522 c -0.0674,-0.3924 -0.17038,-0.773 -0.30551,-1.1376 l 35.06857,-16.56831 -4.30458,-7.3975 -31.84437,22.0989 c -0.0287,-0.0346 -0.0565,-0.0688 -0.0858,-0.1027 -0.10171,-0.11774 -0.20865,-0.23059 -0.31853,-0.34063 -9.4e-4,-9.5e-4 -0.002,-0.003 -0.003,-0.004 -0.0341,-0.0341 -0.0691,-0.068 -0.104,-0.10142 -0.002,-0.002 -0.005,-0.005 -0.007,-0.007 -0.035,-0.0333 -0.071,-0.0663 -0.10661,-0.0988 -0.002,-0.002 -0.004,-0.005 -0.007,-0.007 -0.0357,-0.0325 -0.0714,-0.0633 -0.10791,-0.0949 -0.002,-0.002 -0.004,-0.005 -0.007,-0.007 -0.0335,-0.0291 -0.0686,-0.0575 -0.1027,-0.0858 l 22.08718,-31.88469 -7.42611,-4.25387 -16.52802,35.05687 c -0.37416,-0.13875 -0.76416,-0.24216 -1.16748,-0.30943 l 3.2151,-38.63342 -8.55848,-0.0299 z" fill="#00e6cf" fill-opacity="1" fill-rule="nonzero" stroke="none"></path></g><desc>Created with Snap</desc><defs></defs></g><g><g transform="matrix(0.512,0,0,-0.512,0,0)"><path d="M965 0L859 0Q821 0 811 37L795 160Q730 81 646 33Q563 -14 455 -14Q368 -14 297 19Q226 53 176 118Q126 183 99 280Q72 377 72 503Q72 615 102 711Q132 808 188 879Q245 950 326 990Q407 1031 510 1031Q603 1031 669 999Q735 968 787 911L787 1473L965 1473L965 0ZM514 130Q601 130 666 170Q732 210 787 283L787 773Q738 839 679 865Q621 892 550 892Q408 892 332 791Q256 690 256 503Q256 404 273 333Q290 263 323 217Q356 172 404 151Q452 130 514 130ZM1284 1013L1462 1013L1462 -75Q1462 -136 1446 -189Q1430 -241 1395 -280Q1361 -319 1306 -342Q1252 -364 1176 -364Q1143 -364 1116 -359Q1089 -354 1062 -344L1070 -248Q1072 -235 1079 -232Q1086 -228 1101 -228Q1109 -228 1118 -229Q1127 -229 1140 -229Q1218 -229 1251 -193Q1284 -156 1284 -75L1284 1013ZM1502 1331Q1502 1305 1491 1282Q1481 1260 1463 1242Q1446 1225 1423 1215Q1400 1205 1374 1205Q1348 1205 1325 1215Q1303 1225 1285 1242Q1268 1260 1258 1282Q1248 1305 1248 1331Q1248 1357 1258 1380Q1268 1404 1285 1421Q1303 1439 1325 1449Q1348 1459 1374 1459Q1400 1459 1423 1449Q1446 1439 1463 1421Q1481 1404 1491 1380Q1502 1357 1502 1331ZM2516 648L2516 0L2437 0Q2411 0 2395 8Q2379 16 2374 42L2354 136Q2314 100 2276 71Q2238 43 2196 23Q2154 4 2106 -6Q2059 -16 2001 -16Q1942 -16 1890 0Q1839 17 1801 50Q1763 83 1740 133Q1718 184 1718 253Q1718 313 1751 368Q1784 424 1857 467Q1931 510 2050 537Q2169 565 2341 569L2341 648Q2341 766 2290 826Q2240 887 2141 887Q2076 887 2031 870Q1987 854 1954 833Q1922 813 1898 796Q1875 780 1852 780Q1834 780 1820 789Q1807 799 1799 813L1767 870Q1851 951 1948 991Q2045 1031 2163 1031Q2248 1031 2314 1003Q2380 975 2425 925Q2470 875 2493 804Q2516 733 2516 648ZM2054 109Q2101 109 2140 118Q2179 128 2213 145Q2248 163 2279 188Q2311 213 2341 245L2341 456Q2218 452 2132 436Q2046 421 1992 396Q1938 371 1913 337Q1889 303 1889 261Q1889 221 1902 192Q1915 163 1937 144Q1959 126 1989 117Q2019 109 2054 109ZM2964 0L2786 0L2786 1013L2892 1013Q2930 1013 2940 976L2954 866Q3020 939 3101 984Q3183 1029 3290 1029Q3373 1029 3436 1001Q3500 974 3542 923Q3585 873 3607 802Q3629 731 3629 645L3629 0L3451 0L3451 645Q3451 760 3398 823Q3346 887 3238 887Q3159 887 3090 849Q3022 811 2964 746L2964 0ZM4239 1030Q4305 1030 4362 1015Q4420 1001 4467 973L4742 973L4742 907Q4742 874 4700 865L4585 849Q4619 784 4619 704Q4619 630 4590 569Q4562 509 4511 466Q4461 423 4391 400Q4322 377 4239 377Q4168 377 4105 394Q4073 374 4056 351Q4040 328 4040 306Q4040 270 4069 251Q4098 233 4146 225Q4194 217 4255 215Q4316 213 4379 208Q4443 204 4504 193Q4565 182 4613 157Q4661 132 4690 88Q4719 44 4719 -26Q4719 -91 4686 -152Q4654 -213 4593 -261Q4532 -308 4444 -337Q4356 -365 4245 -365Q4134 -365 4050 -343Q3967 -321 3912 -284Q3857 -247 3829 -199Q3802 -150 3802 -97Q3802 -22 3849 30Q3897 83 3980 114Q3937 134 3911 167Q3886 201 3886 257Q3886 279 3894 302Q3902 326 3918 349Q3935 372 3959 393Q3983 414 4015 430Q3940 472 3897 541Q3855 611 3855 704Q3855 778 3883 838Q3912 899 3963 941Q4014 984 4084 1007Q4155 1030 4239 1030ZM4555 -55Q4555 -17 4534 6Q4513 29 4477 41Q4441 54 4394 60Q4347 66 4295 68Q4243 71 4189 74Q4135 77 4086 85Q4029 58 3993 19Q3958 -20 3958 -74Q3958 -108 3975 -138Q3993 -167 4029 -189Q4065 -210 4119 -223Q4174 -235 4248 -235Q4320 -235 4377 -222Q4434 -209 4473 -185Q4513 -161 4534 -128Q4555 -95 4555 -55ZM4239 495Q4293 495 4334 510Q4376 525 4404 552Q4432 579 4446 616Q4460 654 4460 699Q4460 792 4403 847Q4347 902 4239 902Q4132 902 4075 847Q4019 792 4019 699Q4019 654 4033 616Q4048 579 4076 552Q4104 525 4145 510Q4186 495 4239 495ZM5330 1029Q5441 1029 5530 992Q5620 955 5682 887Q5745 819 5778 722Q5812 626 5812 507Q5812 387 5778 291Q5745 195 5682 127Q5620 59 5530 22Q5441 -14 5330 -14Q5219 -14 5129 22Q5040 59 4977 127Q4914 195 4880 291Q4846 387 4846 507Q4846 626 4880 722Q4914 819 4977 887Q5040 955 5129 992Q5219 1029 5330 1029ZM5330 125Q5480 125 5554 225Q5628 326 5628 506Q5628 687 5554 788Q5480 889 5330 889Q5254 889 5198 863Q5142 837 5104 788Q5067 739 5048 667Q5030 596 5030 506Q5030 416 5048 345Q5067 274 5104 225Q5142 177 5198 151Q5254 125 5330 125ZM6596 0L6418 0L6418 1013L6520 1013Q6549 1013 6560 1002Q6571 991 6575 964L6587 806Q6639 912 6715 971Q6792 1031 6895 1031Q6937 1031 6971 1021Q7005 1012 7034 995L7011 862Q7004 837 6980 837Q6966 837 6937 846Q6908 856 6856 856Q6763 856 6700 802Q6638 748 6596 645L6596 0ZM7625 1029Q7716 1029 7793 998Q7870 968 7926 910Q7982 853 8013 768Q8045 684 8045 576Q8045 534 8036 520Q8027 506 8002 506L7328 506Q7330 410 7354 339Q7378 268 7420 220Q7462 173 7520 149Q7578 126 7650 126Q7717 126 7765 141Q7814 157 7849 175Q7884 193 7907 208Q7931 224 7948 224Q7970 224 7982 207L8032 142Q7999 102 7953 72Q7907 43 7854 24Q7802 5 7746 -5Q7690 -14 7635 -14Q7530 -14 7441 21Q7353 57 7288 125Q7224 194 7188 295Q7152 396 7152 527Q7152 633 7184 725Q7217 817 7278 884Q7339 952 7427 990Q7515 1029 7625 1029ZM7629 898Q7500 898 7426 823Q7352 749 7334 617L7885 617Q7885 679 7868 730Q7851 782 7818 819Q7785 857 7737 877Q7690 898 7629 898ZM9016 648L9016 0L8937 0Q8911 0 8895 8Q8879 16 8874 42L8854 136Q8814 100 8776 71Q8738 43 8696 23Q8654 4 8606 -6Q8559 -16 8501 -16Q8442 -16 8390 0Q8339 17 8301 50Q8263 83 8240 133Q8218 184 8218 253Q8218 313 8251 368Q8284 424 8357 467Q8431 510 8550 537Q8669 565 8841 569L8841 648Q8841 766 8790 826Q8740 887 8641 887Q8576 887 8531 870Q8487 854 8454 833Q8422 813 8398 796Q8375 780 8352 780Q8334 780 8320 789Q8307 799 8299 813L8267 870Q8351 951 8448 991Q8545 1031 8663 1031Q8748 1031 8814 1003Q8880 975 8925 925Q8970 875 8993 804Q9016 733 9016 648ZM8554 109Q8601 109 8640 118Q8679 128 8713 145Q8748 163 8779 188Q8811 213 8841 245L8841 456Q8718 452 8632 436Q8546 421 8492 396Q8438 371 8413 337Q8389 303 8389 261Q8389 221 8402 192Q8415 163 8437 144Q8459 126 8489 117Q8519 109 8554 109ZM10024 897L9977 833Q9969 822 9961 816Q9953 810 9938 810Q9923 810 9905 822Q9888 835 9861 850Q9834 865 9795 877Q9757 890 9701 890Q9627 890 9570 863Q9513 837 9474 787Q9436 737 9416 666Q9397 595 9397 507Q9397 415 9418 343Q9439 272 9477 223Q9515 175 9569 149Q9624 124 9692 124Q9757 124 9799 139Q9841 155 9869 174Q9897 193 9915 208Q9933 224 9951 224Q9974 224 9985 207L10035 142Q9969 61 9870 23Q9771 -14 9661 -14Q9566 -14 9484 21Q9403 56 9343 122Q9283 189 9248 286Q9214 383 9214 507Q9214 620 9245 716Q9277 812 9337 881Q9398 951 9487 990Q9576 1029 9691 1029Q9797 1029 9879 994Q9961 960 10024 897ZM10527 -16Q10407 -16 10342 51Q10278 118 10278 244L10278 864L10156 864Q10140 864 10129 873Q10118 883 10118 903L10118 974L10284 995L10325 1308Q10327 1323 10338 1332Q10349 1342 10366 1342L10456 1342L10456 993L10746 993L10746 864L10456 864L10456 256Q10456 192 10487 161Q10518 130 10567 130Q10595 130 10615 137Q10636 145 10651 154Q10666 163 10676 170Q10687 178 10695 178Q10709 178 10720 161L10772 76Q10726 33 10661 8Q10596 -16 10527 -16ZM10986 1013L11164 1013L11164 0L10986 0L10986 1013ZM11204 1331Q11204 1305 11193 1282Q11183 1260 11165 1242Q11148 1225 11125 1215Q11102 1205 11076 1205Q11050 1205 11027 1215Q11005 1225 10987 1242Q10970 1260 10960 1282Q10950 1305 10950 1331Q10950 1357 10960 1380Q10970 1404 10987 1421Q11005 1439 11027 1449Q11050 1459 11076 1459Q11102 1459 11125 1449Q11148 1439 11165 1421Q11183 1404 11193 1380Q11204 1357 11204 1331ZM11697 0L11518 0L11518 861L11406 874Q11385 879 11371 889Q11358 900 11358 920L11358 993L11518 993L11518 1091Q11518 1178 11542 1245Q11567 1313 11612 1359Q11658 1406 11722 1430Q11786 1454 11866 1454Q11934 1454 11992 1434L11988 1345Q11987 1325 11971 1321Q11955 1317 11926 1317L11895 1317Q11849 1317 11811 1305Q11774 1293 11747 1266Q11720 1239 11705 1195Q11691 1151 11691 1086L11691 993L11984 993L11984 864L11697 864L11697 0ZM13014 1013L12449 -299Q12440 -319 12426 -331Q12413 -343 12385 -343L12253 -343L12438 59L12020 1013L12174 1013Q12197 1013 12210 1001Q12223 990 12229 976L12500 338Q12509 316 12515 294Q12522 272 12527 249Q12534 272 12541 294Q12548 316 12557 339L12820 976Q12826 992 12840 1002Q12855 1013 12872 1013L13014 1013Z" fill="#ffffff" style=""></path></g></g></g></svg>